# xmcd CD database file
#
# Track frame offsets:
#	150
#	11908
#	22963
#	36581
#	47862
#	64938
#	86070
#	100794
#	121867
#	133168
#	147334
#	163410
#	180868
#	214356
#	240833
#
# Disc length: 3447 seconds
#
# Revision: 0
# Processed by: cddbd v1.5.2PL0 Copyright (c) Steve Scherf et al.
# Submitted via: CDex 1.70beta2
#
DISCID=d50d750f
DTITLE=Various Artist - Guitare Jazz - Universal - D1
DYEAR=1939
DGENRE=Jazz
TTITLE0=I'll See You in My Dreams (Django Reinhardt)
TTITLE1=Once in a While (George Van Eps)
TTITLE2=Wholly Cats (Charlie Christian)
TTITLE3=Oscarinadas (Oscar Alemán)
TTITLE4=Lil' Darlin' (Joe Pass)
TTITLE5=A Night in Tunisia (René Thomas)
TTITLE6=Take Five (Elek Bacsik)
TTITLE7=Embraceable You (Chuck Wayne)
TTITLE8=Jaguar (Take 2) Johnny Smith
TTITLE9=Nuits de Saint-Germain des-Prés (Django Reinhardt)
TTITLE10=Night and Day (Joe Pass)
TTITLE11=Tal Farlow (Fascinating Rhythm)
TTITLE12=West Coast Blues (Wes Montgomery)
TTITLE13=Desafinado (Charlie Byrd)
TTITLE14=I Remember Wes (George Benson)
EXTD=YEAR: 1939
EXTT0=
EXTT1=
EXTT2=
EXTT3=
EXTT4=
EXTT5=
EXTT6=
EXTT7=
EXTT8=
EXTT9=
EXTT10=
EXTT11=
EXTT12=
EXTT13=
EXTT14=
PLAYORDER=
